<svg width="829" height="45" viewBox="0 0 829 45" fill="none" xmlns="http://www.w3.org/2000/svg">
<path d="M24.829 30.3871L26.7129 36.629H36.5672L25.5535 0.338708H10.8687L0 36.629H10.0475L11.8348 30.3871H24.829ZM22.8484 23.371H13.9119L18.3077 7.59677H18.4043L22.8484 23.371Z" fill="white"/>
<path d="M39.9293 0.338708V36.629H49.5904V8.75806H62.1981V36.629H71.8591V0.338708H39.9293Z" fill="white"/>
<path d="M95.3846 8.75806H105.142V0.338708H75.9658V8.75806H85.7235V36.629H95.3846V8.75806Z" fill="white"/>
<path d="M118.888 8.27419H135.36V0.338708H109.227V36.629H135.698V28.6935H118.888V21.629H134.345V14.9032H118.888V8.27419Z" fill="white"/>
<path d="M151.673 0.338708H142.012V36.629H151.673V22.4032H154.571L164.667 36.629H176.647L162.832 18.1452L175.584 0.338708H163.894L154.571 13.9839H151.673V0.338708Z" fill="white"/>
<path d="M201.728 30.3871L203.612 36.629H213.467L202.453 0.338708H187.768L176.899 36.629H186.947L188.734 30.3871H201.728ZM199.748 23.371H190.811L195.207 7.59677H195.304L199.748 23.371Z" fill="white"/>
<path d="M260.659 0.338708H234.236V36.629H252.882C260.176 36.629 264.04 33.629 264.04 25.5C264.04 17.371 260.272 14.371 252.882 14.371H243.897V7.8871H260.659V0.338708ZM243.897 21.9194H250.611C253.365 21.9194 254.379 22.5968 254.379 25.5968C254.379 28.4032 253.365 29.0806 250.611 29.0806H243.897V21.9194Z" fill="white"/>
<path d="M291.263 30.3871L293.147 36.629H303.001L291.988 0.338708H277.303L266.434 36.629H276.482L278.269 30.3871H291.263ZM289.283 23.371H280.346L284.742 7.59677H284.839L289.283 23.371Z" fill="white"/>
<path d="M336.216 13.9839V0.338708H327.086V13.9839H324.188L316.169 0.338708H305.156L316.073 17.9032L303.513 36.629H315.493L324.188 22.4032H327.086V36.629H336.216V22.4032H339.115L347.81 36.629H359.789L347.23 17.9032L358.147 0.338708H347.133L339.115 13.9839H336.216Z" fill="white"/>
<path d="M384.855 30.3871L386.739 36.629H396.593L385.579 0.338708H370.895L360.026 36.629H370.073L371.861 30.3871H384.855ZM382.874 23.371H373.938L378.334 7.59677H378.43L382.874 23.371Z" fill="white"/>
<path d="M420.871 23.6129V24.6774C420.871 28.9355 418.987 29.1774 414.978 29.1774C409.181 29.1774 408.94 26.8065 408.94 21.5806H417.732V14.8548H408.94C408.94 9.33871 410.003 7.93548 414.978 7.93548C418.746 7.93548 420.871 8.6129 420.871 11.4677V12.3871H430.822V11.9032C430.822 2.6129 425.219 0 415.606 0C404.979 0 398.989 2.37097 398.989 13.7903V23.1774C398.989 36.4355 406.187 37.1129 416.041 37.1129C423.818 37.1129 430.822 35.9516 430.822 25.9355V23.6129H420.871Z" fill="white"/>
<path d="M435.665 0.338708V36.629H445.326L444.36 8.80645L444.795 8.70968L453.925 36.629H462.281L471.363 8.70968L471.798 8.80645L470.832 36.629H480.493V0.338708H464.793L458.224 23.129H457.886L450.978 0.338708H435.665Z" fill="white"/>
<path d="M502.55 37.1129C512.356 37.1129 519.312 34.7903 519.312 23.6129V13.3548C519.312 2.17742 512.356 0 502.55 0C492.744 0 485.788 2.17742 485.788 13.3548V23.6129C485.788 34.7903 492.744 37.1129 502.55 37.1129ZM502.55 28.6935C497.526 28.6935 495.739 27.9677 495.739 22.5484V14.371C495.739 8.95161 497.526 8.41936 502.55 8.41936C507.573 8.41936 509.361 9 509.361 14.371V22.5484C509.361 27.9677 507.573 28.6935 502.55 28.6935Z" fill="white"/>
<path d="M553.103 21.5806H558.223C561.363 21.5806 562.474 22.6935 562.474 25.3065C562.474 28.3548 560.977 29.1774 556.436 29.1774C551.702 29.1774 550.349 28.7903 550.349 25.0161H541.075C541.075 35.371 546.243 37.1129 556.436 37.1129C569.623 37.1129 572.135 34.4516 572.135 26.0323C572.135 21.5806 570.541 18.8226 565.855 18.3871V18C570.638 17.2258 571.555 14.2258 571.555 9.62903C571.555 2.03226 565.759 0 556.339 0C546.871 0 541.509 2.12903 541.509 10.1613V11.6613H550.736C550.736 8.6129 552.33 7.93548 556.194 7.93548C561.17 7.93548 561.894 9.19355 561.894 11.371C561.894 14.2742 560.687 14.8548 557.692 14.8548H553.103V21.5806Z" fill="white"/>
<path d="M581.815 0.338708V13.0645C581.815 21 580.753 24.871 578.241 28.3065H575.391V45H584.569V36.629H603.553V45H612.731V28.3065H609.688V0.338708H581.815ZM600.026 8.66129V28.3065H587.998C590.027 24.7258 590.993 20.8064 590.993 13.6452V8.66129H600.026Z" fill="white"/>
<path d="M632.748 37.1129C642.554 37.1129 649.51 34.7903 649.51 23.6129V13.3548C649.51 2.17742 642.554 0 632.748 0C622.942 0 615.986 2.17742 615.986 13.3548V23.6129C615.986 34.7903 622.942 37.1129 632.748 37.1129ZM632.748 28.6935C627.724 28.6935 625.937 27.9677 625.937 22.5484V14.371C625.937 8.95161 627.724 8.41936 632.748 8.41936C637.771 8.41936 639.559 9 639.559 14.371V22.5484C639.559 27.9677 637.771 28.6935 632.748 28.6935Z" fill="white"/>
<path d="M664.493 26.5645H673.043C683.139 26.5645 685.409 23.371 685.409 13.1613C685.409 3.67742 682.028 0.338708 673.043 0.338708H654.832V36.629H664.493V26.5645ZM664.493 8.27419H671.111C674.879 8.27419 675.458 9.53226 675.458 13.2581C675.458 17.9516 674.782 18.629 671.111 18.629H664.493V8.27419Z" fill="white"/>
<path d="M706.527 37.1129C716.333 37.1129 723.289 34.7903 723.289 23.6129V13.3548C723.289 2.17742 716.333 0 706.527 0C696.721 0 689.765 2.17742 689.765 13.3548V23.6129C689.765 34.7903 696.721 37.1129 706.527 37.1129ZM706.527 28.6935C701.503 28.6935 699.716 27.9677 699.716 22.5484V14.371C699.716 8.95161 701.503 8.41936 706.527 8.41936C711.55 8.41936 713.338 9 713.338 14.371V22.5484C713.338 27.9677 711.55 28.6935 706.527 28.6935Z" fill="white"/>
<path d="M728.611 36.629H747.836C755.517 36.629 759.671 35.4194 759.671 26.5161C759.671 21.9677 758.753 18.7258 753.391 18.3871V18C758.174 17.2258 759.091 14.2258 759.091 9.62903C759.091 1.69355 754.841 0.338708 747.643 0.338708H728.611V36.629ZM738.272 8.27419H746.387C748.947 8.27419 749.43 9.19355 749.43 11.371C749.43 14.2742 748.609 14.8548 745.228 14.8548H738.272V8.27419ZM738.272 21.5806H745.759C748.899 21.5806 750.01 22.0161 750.01 25.0161C750.01 27.9677 748.706 28.6935 745.566 28.6935H738.272V21.5806Z" fill="white"/>
<path d="M764.547 0.338708V8.27419H767.542C767.542 10.6935 766.865 11.5645 764.064 11.5645V15.1452C770.681 15.1452 772.372 13.2581 772.372 8.27419V0.338708H764.547Z" fill="white"/>
<path d="M797.33 36.629H806.991V0.338708H788.442C779.844 0.338708 776.752 4.01613 776.752 11.8065C776.752 17.6613 778.539 20.7097 783.225 22.6935L775.351 36.629H786.413L792.789 23.8548H797.33V36.629ZM797.33 15.9194H790.809C788.055 15.9194 786.413 14.9516 786.413 12.1452C786.413 9.04839 787.331 8.27419 790.084 8.27419H797.33V15.9194Z" fill="white"/>
<path d="M820.615 16.7442C825.236 16.7442 828.999 13.0086 828.999 8.37209C828.999 3.73558 825.236 0 820.615 0C815.972 0 812.23 3.73558 812.23 8.37209C812.23 13.0086 815.972 16.7442 820.615 16.7442ZM820.615 14.8324C817.006 14.8324 814.123 11.9319 814.123 8.35012C814.123 4.76836 817.006 1.91174 820.615 1.91174C824.158 1.91174 827.107 4.81231 827.107 8.39407C827.107 11.9758 824.158 14.8324 820.615 14.8324ZM822.595 9.14118C824.202 9.03131 825.06 8.35012 825.06 6.6801C825.06 4.28493 823.63 3.91137 821.539 3.91137H817.006V12.9647H818.898V9.25105H820.615L822.639 12.9647H824.796L822.595 9.14118ZM818.898 7.80077V5.36166H821.187C822.331 5.36166 823.168 5.53745 823.168 6.43838C823.168 7.58103 822.617 7.80077 821.583 7.80077H818.898Z" fill="white"/>
</svg>
